<?xml version="1.0" encoding="utf-8"?>
<!-- Generator: Adobe Illustrator 24.0.0, SVG Export Plug-In . SVG Version: 6.00 Build 0)  -->
<svg version="1.1" id="Layer_1" xmlns="http://www.w3.org/2000/svg" xmlns:xlink="http://www.w3.org/1999/xlink" x="0px" y="0px"
	 viewBox="0 0 113.4 91.8" style="enable-background:new 0 0 113.4 91.8;" xml:space="preserve">
<style type="text/css">
	.st0{fill:#0377BD;}
	.st1{fill:#50C2F6;}
</style>
<g>
	<path class="st0" d="M39.2,6.2L39.2,6.2c0-3.4-2.8-6.2-6.2-6.2L6.2,0C2.8,0,0,2.8,0,6.2v66.9h113.4V15.5c0-3.4-2.8-6.2-6.2-6.2
		H42.4C40.7,9.3,39.2,7.9,39.2,6.2z"/>
	<path class="st1" d="M106.1,91.8H7.2c-4,0-7.2-3.2-7.2-7.2V26c0-4,3.2-7.2,7.2-7.2h98.9c4,0,7.2,3.2,7.2,7.2v58.6
		C113.4,88.6,110.1,91.8,106.1,91.8z"/>
</g>
</svg>
