<?xml version="1.0" encoding="utf-8"?>
<!-- Generator: Adobe Illustrator 28.4.1, SVG Export Plug-In . SVG Version: 6.00 Build 0)  -->
<svg version="1.1" id="Livello_1" xmlns="http://www.w3.org/2000/svg" xmlns:xlink="http://www.w3.org/1999/xlink" x="0px" y="0px"
	 viewBox="0 0 237 375.6" style="enable-background:new 0 0 237 375.6;" xml:space="preserve">
<g id="Xa2Bu7_2_">
</g>
<g id="Xa2Bu7_1_">
</g>
<g id="Vi0bPP_1_">
</g>
<g>
	<path d="M0,0c6.3,0,12.2,0,18.7,0c0.3,6.3,0.6,12.6,1,19.5c6.3,0,12.5,0,19,0c0,6.7,0,12.8,0,19.5c-6.3,0-12.4,0-19,0
		c0,92.6,0,184.6,0,277.1c6.3,0,12.4,0,19.2,0c0-6.2,0-12.3,0-19.1c6.3,0,11.9-0.2,17.5,0.2c0.9,0.1,2.5,2.1,2.5,3.4
		c0.3,5.2,0.1,10.4,0.1,16.2c-6.5,0-12.7,0-19.6,0c0,6.8,0,12.9,0,19.3c-13.5,0-26.3,0-39.6,0C0,224.1,0,112.2,0,0z"/>
	<path d="M218.2,216.6c6.1,0.5,12.2,1.1,18.9,1.6c0,12.6,0,25.4,0,38.8c-26.1,0-52,0-79,0c0,6.9,0,13.3,0,19.6l0.1-0.1
		c-6.4,0-12.7,0-19.5,0c0-13,0-25.7,0-39c26.3,0,52.4,0,79.6,0c0-7.4,0-14.2,0-21C218.3,216.5,218.2,216.6,218.2,216.6z"/>
	<path d="M178.6,356.7c0,6.2,0,12.4,0,18.9c-13.8,0-26.7,0-40.2,0c0-6.2,0-12.4,0-19.2c-6.7,0-12.8,0-19.7,0c0-13.4,0-26.1,0-39.3
		c-7-0.3-13.3-0.6-20-0.9c0-13.2,0-25.9,0-38.6l-0.1,0.1c6.5-0.4,13-0.8,20-1.2c0,13.7,0,26.4,0,39.9c6.7,0,13,0,20,0
		c0,13.5,0,26.2,0,39c13.9,0.5,27.1,1,40.3,1.5C178.8,356.9,178.6,356.7,178.6,356.7z"/>
	<path d="M58.6,59.7c6.5,0,13,0,20.2,0c0,6,0,12.1,0,19c6.9,0,13,0,20,0c0,7,0,13.3,0,20c6.8,0,12.9,0,19.6,0c0,6.6,0,12.7,0,19.6
		c6.8,0,13,0,19.8,0c0,6.8,0,13,0,20c6.9,0,13.2,0,20,0c0,6.9,0,12.9,0,19.6c6.6,0,12.8,0,19.5,0c0.4,6.9,0.7,13.2,1.1,19.4l0.1-0.1
		c-6.5,0-13.1,0-20.2,0c0-5.9,0-12,0-18.8c-6.8,0-13.1,0-20,0c0-6.9,0-13.2,0-20c-6.8,0-12.9,0-19.7,0c0-6.7,0-13,0-19.9
		c-6.9,0-13.3,0-20,0c0-6.8,0-12.9,0-19.6c-6.6,0-12.7,0-19.6,0c0-6.8,0-13.1,0-20c-7,0-13.3,0-20.6,0
		C58.7,71.9,58.7,65.8,58.6,59.7L58.6,59.7z"/>
	<path d="M158.1,276.7c6.4,0,12.8,0,19.9,0c0,13.3,0,26.1,0,39.7c6.9,0,13,0,19.5,0c0,13.5,0,26.2,0,40.3c-6.3,0-12.6,0-18.9,0
		c0,0,0.1,0.2,0.2,0.2c0-13.2,0-26.5,0-40.4c-7.4,0-13.7,0-20.5,0c0-13.8,0-26.9,0-39.9C158.2,276.5,158.1,276.7,158.1,276.7z"/>
	<path d="M98.6,277.6c-6,0-12.1,0-19,0c0,6.3,0,12.5,0,19.2c-6.1,0-11.5,0.2-16.8-0.2c-1.3-0.1-3.4-2.3-3.5-3.6
		c-0.4-5.1-0.2-10.3-0.2-16c6.5,0,12.7,0,19.6,0c0-6.7,0-13,0-19.6c6.9,0,13,0,19.6,0c0,7,0,13.6,0,20.3
		C98.5,277.7,98.6,277.6,98.6,277.6z"/>
	<path d="M178.7,177.3c6.2,0.3,12.4,0.6,19.2,1c0,6.5,0,12.7,0,19.4c6.8,0,13,0,20.2,0c0,6.7,0,12.8,0,19c0,0,0.1-0.1,0.1-0.1
		c-6.5,0.3-13,0.7-20.2,1.1c0-7,0-13.2,0-20c-6.9,0-13,0-19.3,0c0-7.2,0-13.8,0-20.5C178.8,177.1,178.7,177.3,178.7,177.3z"/>
	<path d="M58.7,59.6c-6.1-0.4-12.2-0.7-18.8-1.1c0-6.3,0-12.5,0-19c6.3,0,12.4,0,18.8,0C58.6,46.4,58.6,53.1,58.7,59.6
		C58.6,59.7,58.7,59.6,58.7,59.6z"/>
</g>
</svg>
