<?xml version="1.0" encoding="utf-8"?>
<!-- Generator: Adobe Illustrator 28.4.1, SVG Export Plug-In . SVG Version: 6.00 Build 0)  -->
<svg version="1.1" id="Livello_1" xmlns="http://www.w3.org/2000/svg" xmlns:xlink="http://www.w3.org/1999/xlink" x="0px" y="0px"
	 viewBox="0 0 239.3 375.6" style="enable-background:new 0 0 239.3 375.6;" xml:space="preserve">
<g id="Xa2Bu7_2_">
</g>
<g id="Xa2Bu7_1_">
</g>
<g id="Vi0bPP_1_">
</g>
<g>
	<polygon points="19.9,39.4 39.8,39.4 39.8,59.3 59.8,59.3 59.8,39.4 39.8,39.4 39.8,19.5 19.9,19.5 19.9,0 0,0 0,337.3 17,337.3 
		19.9,337.3 36.9,337.3 36.9,317.3 19.9,317.3 	"/>
	<rect x="59.8" y="59.3" width="20" height="20"/>
	<rect x="79.7" y="79.3" width="20" height="20"/>
	<rect x="99.7" y="99.2" width="20" height="20"/>
	<polygon points="139.6,139.1 139.6,159 159.5,159 159.5,139 139.6,139 139.6,119.2 119.6,119.2 119.6,139.1 	"/>
	<rect x="159.5" y="159" width="20" height="20"/>
	<rect x="179.5" y="178.9" width="20" height="20"/>
	<rect x="199.4" y="198.9" width="20" height="20"/>
	<rect x="76.8" y="257.5" width="20" height="20"/>
	<rect x="56.9" y="277.4" width="20" height="20"/>
	<rect x="36.9" y="297.4" width="20" height="20"/>
	<polygon points="219.4,218.8 219.4,237.1 138.6,237.1 138.6,257.1 138.8,257.1 138.8,276.5 158.7,276.5 158.7,314.7 178.7,314.7 
		178.7,276.5 158.7,276.5 158.7,257.1 219.4,257.1 222.5,257.1 239.3,257.1 239.3,218.8 	"/>
	<rect x="178.7" y="314.7" width="20" height="41"/>
	<rect x="136.7" y="355.7" width="42" height="20"/>
	<polygon points="116.7,316.4 116.7,277.4 96.8,277.4 96.8,316.7 116.7,316.7 116.7,355.7 136.7,355.7 136.7,316.4 	"/>
</g>
</svg>
