<?xml version="1.0" encoding="utf-8"?>
<!-- Generator: Adobe Illustrator 28.4.1, SVG Export Plug-In . SVG Version: 6.00 Build 0)  -->
<svg version="1.2" baseProfile="tiny" id="Layer_1" xmlns="http://www.w3.org/2000/svg" xmlns:xlink="http://www.w3.org/1999/xlink"
	 x="0px" y="0px" viewBox="0 0 512 512" overflow="visible" xml:space="preserve">
<path fill="#FFFFFF" d="M441.4,82.9c-33.3-35.9-74-60-121.4-72.4c-26.6-7-53.8-9.7-81.3-7.7c-48.2,3.5-92,19.3-131.4,47.4
	c-3.8,2.7-3.8,2.8-6.8-0.9C80.6,24.6,54.7,9.9,23.6,4C17.5,2.9,11.3,2.4,5.1,2.2c-2.4-0.1-3,0.6-3,2.9c0.1,25.7,0,51.4,0,77.1
	c0,19.7,0,39.3,0,59l0,0c0,35.6,0,71.1,0,106.7c0,17.5,0.6,35,3.8,52.3c4.5,24.6,12.1,48.2,23.5,70.6c14.4,28.1,33.2,52.9,56.6,74
	c32.5,29.2,70.1,48.9,112.8,58.8c23.6,5.5,47.6,7.4,71.7,6.1c48-2.7,91.8-17.8,131.1-45.6c52.6-37.2,86.4-87.4,101.5-150
	c6-24.7,8-49.8,6.1-75C504.7,179.1,482.2,126.9,441.4,82.9z M256.1,333.7c-42.9,0-77.6-34.8-77.6-77.6s34.8-77.6,77.6-77.6
	s77.6,34.8,77.6,77.6S298.9,333.7,256.1,333.7z"/>
</svg>
