<?xml version="1.0" encoding="utf-8"?>
<!-- Generator: Adobe Illustrator 28.4.1, SVG Export Plug-In . SVG Version: 6.00 Build 0)  -->
<svg version="1.1" id="Layer_1" xmlns="http://www.w3.org/2000/svg" xmlns:xlink="http://www.w3.org/1999/xlink" x="0px" y="0px"
	 viewBox="0 0 613.6 410.8" style="enable-background:new 0 0 613.6 410.8;" xml:space="preserve">
<style type="text/css">
	.st0{fill:#FF4003;}
	.st1{fill:#161616;}
</style>
<g>
	<path class="st0" d="M600.9,331.6c-6.2-6.7-13.7-11.1-22.5-13.4c-4.9-1.3-10-1.8-15.1-1.4c-8.9,0.6-17.1,3.6-24.4,8.8
		c-0.7,0.5-0.7,0.5-1.2-0.2c-3.7-4.6-8.5-7.3-14.3-8.4c-1.1-0.2-2.3-0.3-3.4-0.3c-0.4,0-0.6,0.1-0.5,0.5c0,4.8,0,9.5,0,14.3
		c0,3.6,0,7.3,0,10.9l0,0c0,6.6,0,13.2,0,19.8c0,3.2,0.1,6.5,0.7,9.7c0.8,4.6,2.2,8.9,4.4,13.1c2.7,5.2,6.2,9.8,10.5,13.7
		c6,5.4,13,9.1,20.9,10.9c4.4,1,8.8,1.4,13.3,1.1c8.9-0.5,17-3.3,24.3-8.5c9.7-6.9,16-16.2,18.8-27.8c1.1-4.6,1.5-9.2,1.1-13.9
		C612.7,349.4,608.5,339.7,600.9,331.6z M566.6,378.1c-8,0-14.4-6.4-14.4-14.4s6.4-14.4,14.4-14.4s14.4,6.4,14.4,14.4
		C581,371.6,574.5,378.1,566.6,378.1z"/>
	<g>
		<path class="st1" d="M93.9,154.3c0,10.6-1.4,18.4-4.1,23.5c-2.7,5.1-7.8,9.2-15.3,12.3v1.2c7.4,3.1,12.5,7.2,15.3,12.3
			c2.7,5.1,4.1,12.9,4.1,23.5v136.7c0,16-3.8,27.9-11.4,35.5s-19.3,11.4-34.9,11.4H0V0h47.5c15.6,0,27.3,3.8,34.9,11.4
			c7.6,7.6,11.4,19.5,11.4,35.5L93.9,154.3L93.9,154.3z M56,36.7c-1.8-2.5-4.8-3.8-9.1-3.8H35.2v141.4h11.7c4.3,0,7.3-1.3,9.1-3.8
			c1.8-2.5,2.6-6.9,2.6-13.2V49.9C58.7,43.6,57.8,39.2,56,36.7z M56,210.9c-1.8-2.5-4.8-3.8-9.1-3.8H35.2v170.8h11.7
			c4.3,0,7.3-1.3,9.1-3.8c1.8-2.5,2.6-6.9,2.6-13.2V224.1C58.7,217.9,57.8,213.5,56,210.9z"/>
		<path class="st1" d="M174.3,410.8h37L180.7,0h-46.9l-26.4,410.8h32.9l5.7-108h22.7L174.3,410.8z M147.6,269.9l6.1-116.8l2.9-100.9
			h1.2l2.9,100.9l6.1,116.8H147.6z"/>
		<path class="st1" d="M319.2,364.6c0,14.2-4.3,25.5-12.9,33.8c-8.6,8.3-20.1,12.4-34.6,12.4c-14.5,0-25.8-4.1-34-12.4
			c-8.2-8.3-12.3-19.5-12.3-33.8v-99.2h35.2V360c0,6.5,0.9,11.2,2.6,14.1s4.8,4.3,9.1,4.3c3.9,0,6.8-1.4,8.8-4.3
			c2-2.9,2.9-7.6,2.9-14.1v-76.7c0-16.5-2.8-30.9-8.5-43.3c-5.7-12.3-12-24.4-19.1-36.3c-7.8-12.7-15-26.2-21.4-40.7
			c-6.4-14.4-9.7-32.4-9.7-53.9V46.1c0-14.2,4.2-25.5,12.6-33.8C246.3,4.1,258,0,272.9,0c14.1,0,25.3,4.1,33.7,12.4
			c8.4,8.3,12.6,19.5,12.6,33.8v81.3H284V50.8c0-6.5-1-11.2-2.9-14.1c-2-2.9-4.9-4.3-8.8-4.3c-4.3,0-7.3,1.4-9.1,4.3
			c-1.8,2.9-2.6,7.6-2.6,14.1V109c0,16.9,2.8,31.5,8.5,43.8c5.7,12.3,12,24.4,19.1,36.3c7.8,13.1,15,26.8,21.4,41.2
			c6.5,14.4,9.7,32,9.7,52.8L319.2,364.6L319.2,364.6z"/>
		<path class="st1" d="M376.7,410.8h-35.2V0h35.2V410.8z"/>
		<path class="st1" d="M456.8,36.6c-1.8-2.9-4.8-4.3-9.1-4.3c-4.3,0-7.3,1.4-9.1,4.3c-1.8,2.9-2.6,7.6-2.6,14.1V360
			c0,6.5,0.9,11.2,2.6,14.1s4.8,4.3,9.1,4.3c4.3,0,7.3-1.4,9.1-4.3c1.8-2.9,2.6-7.6,2.6-14.1V236.5h35.2v128.1
			c0,14.2-4.1,25.5-12.3,33.8c-8.2,8.3-19.6,12.4-34,12.4c-14.5,0-26-4.1-34.6-12.4c-8.6-8.3-12.9-19.5-12.9-33.8V46.1
			c0-14.2,4.3-25.5,12.9-33.8C422.3,4.1,433.8,0,448.3,0s25.8,4.1,34,12.4c8.2,8.3,12.3,19.5,12.3,33.8v110.2h-35.2V50.8
			C459.4,44.2,458.6,39.5,456.8,36.6z"/>
	</g>
</g>
</svg>
