<?xml version="1.0" encoding="utf-8"?>
<!-- Generator: Adobe Illustrator 28.4.1, SVG Export Plug-In . SVG Version: 6.00 Build 0)  -->
<svg version="1.1" id="Layer_1" xmlns="http://www.w3.org/2000/svg" xmlns:xlink="http://www.w3.org/1999/xlink" x="0px" y="0px"
	 viewBox="0 0 613.64 410.75" style="enable-background:new 0 0 613.64 410.75;" xml:space="preserve">
<style type="text/css">
	.st0{fill:#F69220;}
	.st1{fill:#161616;}
</style>
<g>
	<path class="st0" d="M600.94,331.59c-6.18-6.66-13.72-11.12-22.5-13.43c-4.94-1.3-9.98-1.8-15.08-1.43
		c-8.94,0.64-17.06,3.58-24.36,8.79c-0.71,0.5-0.71,0.51-1.25-0.16c-3.72-4.58-8.53-7.31-14.29-8.4c-1.13-0.21-2.28-0.29-3.43-0.34
		c-0.44-0.02-0.56,0.11-0.55,0.54c0.01,4.76,0.01,9.52,0.01,14.29c0,3.65,0,7.29,0,10.94c0,0,0,0,0,0c0,6.59,0.01,13.19,0,19.78
		c-0.01,3.25,0.12,6.49,0.7,9.69c0.83,4.57,2.25,8.94,4.36,13.09c2.66,5.22,6.15,9.8,10.5,13.71c6.03,5.42,13,9.06,20.91,10.9
		c4.38,1.02,8.82,1.38,13.29,1.12c8.89-0.51,17.03-3.31,24.3-8.46c9.74-6.9,16.02-16.2,18.82-27.82c1.11-4.57,1.49-9.23,1.13-13.91
		C612.67,349.41,608.51,339.74,600.94,331.59z M566.57,378.08c-7.95,0-14.39-6.44-14.39-14.39c0-7.95,6.44-14.39,14.39-14.39
		c7.95,0,14.39,6.44,14.39,14.39C580.96,371.63,574.52,378.08,566.57,378.08z"/>
	<g>
		<path class="st1" d="M93.89,154.33c0,10.56-1.38,18.39-4.11,23.47c-2.74,5.09-7.83,9.2-15.26,12.32v1.17
			c7.43,3.14,12.52,7.24,15.26,12.32c2.73,5.09,4.11,12.91,4.11,23.47v136.72c0,16.04-3.81,27.87-11.44,35.5
			c-7.63,7.63-19.27,11.44-34.91,11.44H0V0h47.53c15.64,0,27.29,3.81,34.91,11.44c7.63,7.63,11.44,19.46,11.44,35.5V154.33z
			 M56.04,36.67c-1.76-2.54-4.8-3.81-9.1-3.81H35.21v141.42h11.74c4.3,0,7.33-1.27,9.1-3.81c1.76-2.54,2.64-6.94,2.64-13.2V49.88
			C58.68,43.62,57.8,39.22,56.04,36.67z M56.04,210.95c-1.76-2.54-4.8-3.81-9.1-3.81H35.21v170.76h11.74c4.3,0,7.33-1.26,9.1-3.81
			c1.76-2.54,2.64-6.94,2.64-13.2V224.15C58.68,217.9,57.8,213.5,56.04,210.95z"/>
		<path class="st1" d="M174.27,410.75h36.97L180.73,0h-46.94l-26.41,410.75h32.86l5.66-107.97h22.72L174.27,410.75z M147.62,269.92
			l6.12-116.77l2.93-100.93h1.17l2.93,100.93l6.12,116.77H147.62z"/>
		<path class="st1" d="M319.2,364.6c0,14.23-4.31,25.48-12.91,33.75c-8.61,8.28-20.15,12.4-34.62,12.4
			c-14.48,0-25.82-4.13-34.03-12.4c-8.21-8.27-12.32-19.52-12.32-33.75v-99.23h35.21v94.61c0,6.55,0.88,11.25,2.64,14.13
			c1.76,2.88,4.79,4.33,9.1,4.33c3.91,0,6.84-1.44,8.8-4.33c1.95-2.89,2.93-7.59,2.93-14.13v-76.73c0-16.53-2.84-30.95-8.51-43.27
			c-5.68-12.3-12.03-24.42-19.07-36.34c-7.83-12.69-14.96-26.25-21.42-40.67c-6.45-14.42-9.68-32.4-9.68-53.94V46.15
			c0-14.22,4.2-25.47,12.62-33.75C246.34,4.14,257.98,0,272.85,0c14.08,0,25.32,4.14,33.74,12.4c8.41,8.28,12.62,19.52,12.62,33.75
			v81.34H284V50.77c0-6.54-0.98-11.25-2.93-14.13c-1.96-2.88-4.9-4.33-8.8-4.33c-4.31,0-7.33,1.44-9.1,4.33
			c-1.76,2.88-2.64,7.6-2.64,14.13v58.27c0,16.93,2.83,31.54,8.51,43.84c5.67,12.31,12.03,24.43,19.07,36.34
			c7.82,13.08,14.96,26.83,21.42,41.25c6.45,14.42,9.68,32.02,9.68,52.79V364.6z"/>
		<path class="st1" d="M376.71,410.75H341.5V0h35.21V410.75z"/>
		<path class="st1" d="M456.8,36.63c-1.76-2.88-4.79-4.33-9.09-4.33c-4.31,0-7.33,1.44-9.1,4.33c-1.76,2.88-2.64,7.6-2.64,14.13
			v309.22c0,6.55,0.88,11.25,2.64,14.13c1.76,2.88,4.79,4.33,9.1,4.33c4.3,0,7.33-1.44,9.09-4.33c1.76-2.89,2.64-7.59,2.64-14.13
			V236.53h35.21V364.6c0,14.23-4.11,25.48-12.32,33.75c-8.21,8.28-19.57,12.4-34.03,12.4c-14.48,0-26.02-4.13-34.62-12.4
			c-8.61-8.27-12.91-19.52-12.91-33.75V46.15c0-14.22,4.3-25.47,12.91-33.75C422.27,4.14,433.82,0,448.29,0
			c14.47,0,25.82,4.14,34.03,12.4c8.22,8.28,12.32,19.52,12.32,33.75v110.19h-35.21V50.77C459.44,44.23,458.56,39.52,456.8,36.63z"
			/>
	</g>
</g>
</svg>
