<?xml version="1.0" encoding="utf-8"?>
<!-- Generator: Adobe Illustrator 28.4.1, SVG Export Plug-In . SVG Version: 6.00 Build 0)  -->
<svg version="1.1" id="Layer_1" xmlns="http://www.w3.org/2000/svg" xmlns:xlink="http://www.w3.org/1999/xlink" x="0px" y="0px"
	 viewBox="0 0 762.6 351.4" style="enable-background:new 0 0 762.6 351.4;" xml:space="preserve">
<style type="text/css">
	.st0{fill:#FFFFFF;}
</style>
<g>
	<rect x="530.33" y="4.74" class="st0" width="56.73" height="343.59"/>
	<path class="st0" d="M135.78,175.58c-12.83-5.27-24.95-1.37-28.69,0c0-1.3,0-2.61,0-3.91c4.42-0.4,21.34-2.43,35.22-16.72
		c15-15.45,16.79-33.36,17.17-37.43c1.01-10.82,2.19-28.65-1.39-49.11c-2.97-16.98-5.72-32.63-18.41-45.66
		C122.84,5.46,99.54,4.17,91.63,4.11c-30.54,0-61.09,0-91.63,0C0,118.64,0,233.17,0,347.7c27.42,0,54.95,0,82.25,0
		c3.92,0,43.93,0.28,61.81-22.95c12.15-15.78,15.86-31.82,16.57-38.89c0-22.95,0-45.9,0-68.85
		C160.89,198.25,150.92,181.8,135.78,175.58z M55.14,153.59c2.19-4.37,2.03-8.5,1.99-9.88c-0.19-7.29-0.05-44.32,0-95.3
		c5.82,0,11.63,0,17.45,0c2.47,0.16,10.95,1,18.17,7.81c9.04,8.52,9.1,19.77,9.08,21.67c0,16.04,0,32.09,0,48.13
		c-0.1,3.51-0.8,6.46-1.75,8.92c-8.81,22.82-47.34,24.62-49.72,24.7C51.66,158.55,53.64,156.59,55.14,153.59z M96.18,294.39
		c-7.33,7.87-16.57,8.99-18.88,9.2c-6.8-0.01-13.6-0.03-20.4-0.04c0-32.51,0-65.02,0-97.53c21.03-4.87,37.87-2.45,41.79,3.03
		c1.93,2.69,3.23,5.98,3.23,5.98c1.64,4.13,1.99,7.81,2.03,10.16c0,15.62,0,31.24,0,46.85C104.09,273.93,104.73,285.21,96.18,294.39
		z"/>
	<path class="st0" d="M287.83,347.7H348L305.02,4.01h-45.33h-5.93h-45.33L165.45,347.7h60.17l8.07-81.46h46.05L287.83,347.7z
		 M238.29,219.95l16.59-167.39h3.69l16.59,167.39H238.29z"/>
	<path class="st0" d="M762.6,129.82V74.38l-0.06,0v-5.82c0,0,1.74-25.48-13.97-43.81C732.86,6.43,708.57,0,696.43,0h-29.51
		c-12.14,0-36.43,6.43-52.14,24.76c-15.71,18.33-13.97,43.81-13.97,43.81v5.81v4.66v193.31v4.3v6.18c0,0-1.74,25.48,13.97,43.81
		c15.71,18.33,40,24.76,52.14,24.76h29.51c12.14,0,36.43-6.43,52.14-24.76c15.71-18.33,13.97-43.81,13.97-43.81v-6.18h0.06V163.47
		l-56.82,14.04v94.85h-0.06v8.73v3.63c0,12.11-9.82,21.93-21.93,21.93h-4.29c-12.11,0-21.93-9.82-21.93-21.93v-2.83l0.03-5.22h0.03
		V79.04v-4.66v-4.07v-3.63c0-12.11,9.82-21.93,21.93-21.93h4.29c12.11,0,21.93,9.82,21.93,21.93v2.83l-0.06,9.52h0.06v64.82
		L762.6,129.82z"/>
	<path class="st0" d="M410.8,79.36V74.7v-4.06v-3.62c0-12.1,9.81-21.9,21.9-21.9h4.28c12.1,0,21.9,9.81,21.9,21.9v2.83l-0.06,9.51
		h0.06v41.3l56.76-14.02V74.7l-0.06,0v-5.81c0,0,1.74-25.45-13.96-43.76C485.94,6.82,461.68,0.4,449.55,0.4h-29.48
		c-12.13,0-36.39,6.42-52.08,24.73c-15.7,18.31-13.96,43.76-13.96,43.76v5.81v4.66l-0.06,51.69c0,20.13,4.34,31.87,9.89,41.7
		c5.55,9.83,21.09,17.28,27.27,19.98s50.57,12.72,58.9,14.39c8.32,1.66,8.85,9.63,8.85,9.63v14.9v40.81h-0.06v8.72v3.62
		c0,12.1-9.81,21.9-21.9,21.9h-4.28c-12.1,0-21.9-9.81-21.9-21.9v-2.83l0.03-5.22h0.03v-53.42h-56.76v49.13v4.29v6.17
		c0,0-1.74,25.45,13.96,43.76c15.7,18.31,39.95,24.73,52.08,24.73h29.48c12.13,0,36.39-6.42,52.08-24.73
		c15.7-18.31,13.96-43.76,13.96-43.76v-6.17h0.06v-59.13c0,0,1.22-23.46-11.63-40.11c-12.84-16.65-31.87-23.07-47.56-25.92
		l-34.72-7.13c0,0-10.94-1.37-10.94-10.4L410.8,79.36z"/>
</g>
</svg>
