<?xml version="1.0" encoding="utf-8"?>
<!-- Generator: Adobe Illustrator 28.4.1, SVG Export Plug-In . SVG Version: 6.00 Build 0)  -->
<svg version="1.2" baseProfile="tiny" id="Layer_1" xmlns="http://www.w3.org/2000/svg" xmlns:xlink="http://www.w3.org/1999/xlink"
	 x="0px" y="0px" viewBox="0 0 372.2 84.2" overflow="visible" xml:space="preserve">
<g>
	<path fill="#FFFFFF" d="M4.4,80.6V3.6h49c16.7,0,25,6.6,25,18.6c0,9.9-5.2,16.9-19.2,17.5v1.2C74.6,41.4,82,48.5,82,59.2
		c0,13-7.5,21.4-25.9,21.4H4.4z M26,32.8h25.2c4.4,0,5.6-1.3,5.6-4.8S55.1,23,50.6,23H26V32.8z M26,61.2h27.4c5.2,0,6.8-1,6.8-5.4
		c0-4.3-1.5-5.3-6.8-5.3H26V61.2z"/>
	<path fill="#FFFFFF" d="M80.8,80.6L114,3.6H145l33.4,77.1h-24.8l-5.9-14.3h-36.6l-6,14.3H80.8z M119.2,46.9h20.5l-4.5-10.8l-5.1-13
		h-1.5l-4.9,13L119.2,46.9z"/>
	<path fill="#FFFFFF" d="M175.9,53.8v-0.7h21.6v2.4c0,5.2,1.8,6.6,16.3,6.6c13.1,0,14.5-1,14.5-4.5c0-2.8-1.5-3.9-7.8-4.7l-24.2-3.2
		c-14.4-2-21.6-9.7-21.6-22.1c0-12.3,9.5-25.2,37.4-25.2c24.5,0,36.2,10.7,36.2,28V31h-21.6v-1.7c0-5.5-2.4-7.4-16.9-7.4
		c-11,0-13.5,1.5-13.5,4.8c0,2.4,1.4,3.6,5.5,4.1l24.2,3.6C245,37.3,250,46.9,250,56.8c0,13.2-10.1,25-36.1,25
		C190.3,81.8,175.9,73.4,175.9,53.8z"/>
	<path fill="#FFFFFF" d="M256.3,80.6V3.6h21.6v77.1H256.3z"/>
	<path fill="#FFFFFF" d="M283.8,42.1c0-24,15.8-39.7,42.6-39.7c25.9,0,41.4,12.3,41.4,32.9v2h-24.2v-2c0-8.7-4.1-12.2-16.9-12.2
		c-15.6,0-19.9,3.7-19.9,19c0,15.3,4.3,19,19.9,19c12.8,0,16.9-3.5,16.9-12.2v-2h24.2v2c0,20.6-15.5,32.9-41.4,32.9
		C299.5,81.8,283.8,66.1,283.8,42.1z"/>
</g>
</svg>
