<?xml version="1.0" encoding="utf-8"?>
<!-- Generator: Adobe Illustrator 28.4.1, SVG Export Plug-In . SVG Version: 6.00 Build 0)  -->
<svg version="1.1" id="Layer_1" xmlns="http://www.w3.org/2000/svg" xmlns:xlink="http://www.w3.org/1999/xlink" x="0px" y="0px"
	 viewBox="0 0 35.9 32" style="enable-background:new 0 0 35.9 32;" xml:space="preserve">
<style type="text/css">
	.st0{fill:#FF4003;}
</style>
<path class="st0" d="M29.3,5.4c-2-2.2-4.5-3.7-7.4-4.4c-1.6-0.4-3.3-0.6-5-0.5c-3,0.2-5.6,1.2-8.1,2.9C8.6,3.5,8.6,3.5,8.4,3.3
	C7.2,1.8,5.6,0.9,3.7,0.5C3.3,0.5,3,0.5,2.6,0.4c-0.1,0-0.2,0-0.2,0.2c0,1.6,0,3.1,0,4.7c0,1.2,0,2.4,0,3.6l0,0c0,2.2,0,4.4,0,6.5
	c0,1.1,0,2.1,0.2,3.2c0.3,1.5,0.7,3,1.4,4.3c0.9,1.7,2,3.2,3.5,4.5c2,1.8,4.3,3,6.9,3.6c1.4,0.3,2.9,0.5,4.4,0.4
	c2.9-0.2,5.6-1.1,8-2.8c3.2-2.3,5.3-5.4,6.2-9.2c0.4-1.5,0.5-3.1,0.4-4.6C33.2,11.3,31.8,8.1,29.3,5.4z M18,20.8
	c-2.6,0-4.8-2.1-4.8-4.8s2.1-4.8,4.8-4.8s4.8,2.1,4.8,4.8C22.7,18.6,20.6,20.8,18,20.8z"/>
</svg>
