<?xml version="1.0" encoding="utf-8"?>
<!-- Generator: Adobe Illustrator 28.4.1, SVG Export Plug-In . SVG Version: 6.00 Build 0)  -->
<svg version="1.1" id="Layer_1" xmlns="http://www.w3.org/2000/svg" xmlns:xlink="http://www.w3.org/1999/xlink" x="0px" y="0px"
	 viewBox="0 0 639.51 439.98" style="enable-background:new 0 0 639.51 439.98;" xml:space="preserve">
<style type="text/css">
	.st0{fill:#F69220;}
	.st1{fill:#161616;}
</style>
<g>
	<path class="st0" d="M613.88,346.22c-6.18-6.66-13.72-11.12-22.5-13.43c-4.94-1.3-9.98-1.8-15.08-1.43
		c-8.94,0.64-17.06,3.58-24.36,8.79c-0.71,0.5-0.71,0.51-1.25-0.16c-3.72-4.58-8.53-7.31-14.29-8.4c-1.13-0.21-2.28-0.29-3.43-0.34
		c-0.44-0.02-0.56,0.11-0.55,0.54c0.01,4.76,0.01,9.52,0.01,14.29c0,3.65,0,7.29,0,10.94c0,0,0,0,0,0c0,6.59,0.01,13.19,0,19.78
		c-0.01,3.25,0.12,6.49,0.7,9.69c0.83,4.57,2.25,8.94,4.36,13.09c2.66,5.22,6.15,9.8,10.5,13.71c6.03,5.42,13,9.06,20.91,10.9
		c4.38,1.02,8.82,1.38,13.29,1.12c8.89-0.51,17.03-3.31,24.3-8.46c9.74-6.9,16.02-16.2,18.82-27.82c1.11-4.57,1.49-9.23,1.13-13.91
		C625.6,364.04,621.44,354.37,613.88,346.22z M579.51,392.71c-7.95,0-14.39-6.44-14.39-14.39c0-7.95,6.44-14.39,14.39-14.39
		c7.95,0,14.39,6.44,14.39,14.39C593.9,386.26,587.46,392.71,579.51,392.71z"/>
	<g>
		<path class="st1" d="M106.82,168.94c0,10.56-1.38,18.39-4.11,23.47c-2.74,5.09-7.83,9.2-15.26,12.32v1.17
			c7.43,3.14,12.52,7.24,15.26,12.32c2.73,5.09,4.11,12.91,4.11,23.47v136.72c0,16.04-3.81,27.87-11.44,35.5
			c-7.63,7.63-19.27,11.44-34.91,11.44H12.93V14.62h47.53c15.64,0,27.29,3.81,34.91,11.44c7.63,7.63,11.44,19.46,11.44,35.5V168.94z
			 M68.97,51.29c-1.76-2.54-4.8-3.81-9.1-3.81H48.14v141.42h11.74c4.3,0,7.33-1.27,9.1-3.81c1.76-2.54,2.64-6.94,2.64-13.2V64.49
			C71.61,58.24,70.73,53.84,68.97,51.29z M68.97,225.57c-1.76-2.54-4.8-3.81-9.1-3.81H48.14v170.76h11.74c4.3,0,7.33-1.26,9.1-3.81
			c1.76-2.54,2.64-6.94,2.64-13.2V238.77C71.61,232.52,70.73,228.11,68.97,225.57z"/>
		<path class="st1" d="M187.21,425.37h36.97L193.66,14.62h-46.94l-26.41,410.75h32.86l5.66-107.97h22.72L187.21,425.37z
			 M160.55,284.54l6.12-116.77l2.93-100.93h1.17l2.93,100.93l6.12,116.77H160.55z"/>
		<path class="st1" d="M332.14,381.94c0,14.48-4.31,25.92-12.91,34.33c-8.61,8.42-20.15,12.62-34.62,12.62
			c-14.48,0-25.82-4.2-34.03-12.62c-8.21-8.41-12.32-19.85-12.32-34.33V281.02h35.21v96.23c0,6.66,0.88,11.44,2.64,14.38
			c1.76,2.93,4.79,4.4,9.1,4.4c3.91,0,6.84-1.47,8.8-4.4c1.95-2.93,2.93-7.72,2.93-14.38v-78.04c0-16.81-2.84-31.48-8.51-44.01
			c-5.68-12.51-12.03-24.84-19.07-36.97c-7.83-12.91-14.96-26.7-21.42-41.37c-6.45-14.67-9.68-32.95-9.68-54.86V58.04
			c0-14.47,4.2-25.91,12.62-34.33c8.41-8.41,20.04-12.62,34.91-12.62c14.08,0,25.32,4.21,33.74,12.62
			c8.41,8.42,12.62,19.86,12.62,34.33v82.74h-35.21V62.73c0-6.65-0.98-11.44-2.93-14.38c-1.96-2.93-4.9-4.4-8.8-4.4
			c-4.31,0-7.33,1.47-9.1,4.4s-2.64,7.73-2.64,14.38V122c0,17.22,2.83,32.08,8.51,44.6c5.67,12.52,12.03,24.85,19.07,36.97
			c7.82,13.3,14.96,27.29,21.42,41.96c6.45,14.67,9.68,32.57,9.68,53.69V381.94z"/>
		<path class="st1" d="M389.64,425.37h-35.21V14.62h35.21V425.37z"/>
		<path class="st1" d="M469.74,48.36c-1.76-2.93-4.79-4.4-9.09-4.4c-4.31,0-7.33,1.47-9.1,4.4c-1.76,2.93-2.64,7.73-2.64,14.38
			v314.52c0,6.66,0.88,11.44,2.64,14.38c1.76,2.93,4.79,4.4,9.1,4.4c4.3,0,7.33-1.47,9.09-4.4c1.76-2.93,2.64-7.72,2.64-14.38
			V251.68h35.21v130.27c0,14.48-4.11,25.92-12.32,34.33c-8.21,8.42-19.57,12.62-34.03,12.62c-14.48,0-26.02-4.2-34.62-12.62
			c-8.61-8.41-12.91-19.85-12.91-34.33V58.04c0-14.47,4.3-25.91,12.91-34.33c8.6-8.41,20.14-12.62,34.62-12.62
			c14.47,0,25.82,4.21,34.03,12.62c8.22,8.42,12.32,19.86,12.32,34.33v112.08h-35.21V62.73C472.38,56.08,471.5,51.29,469.74,48.36z"
			/>
	</g>
</g>
</svg>
