<?xml version="1.0" encoding="utf-8"?>
<!-- Generator: Adobe Illustrator 28.4.1, SVG Export Plug-In . SVG Version: 6.00 Build 0)  -->
<svg version="1.2" baseProfile="tiny" id="Layer_1" xmlns="http://www.w3.org/2000/svg" xmlns:xlink="http://www.w3.org/1999/xlink"
	 x="0px" y="0px" viewBox="0 0 591.4 351.5" overflow="visible" xml:space="preserve">
<g>
	<g>
		<path fill="#161616" d="M58,346.9H0V4.5h58c31,0,57.5,18.3,57.5,49.3v88.1c0,15.1-6.4,24.2-16.4,32.4l-4.1,3.2
			c12.3,5.5,20.5,16.4,20.5,30.1v89.9C115.6,328.6,89.1,346.9,58,346.9z M48,162.5l19.6-17.3V58.4c0-6.8-2.7-12.8-9.6-12.8H48
			C48,45.6,48,162.5,48,162.5z M48,305.8h10c6.8,0,9.6-5.9,9.6-12.8v-93.1L48,215.4C48,215.4,48,305.8,48,305.8z"/>
		<path fill="#161616" d="M218.4,4.5l37,342.3h-47.9l-4.6-73.5l-21,17.3l-3.2,56.1h-47.9L165.9,4.4h52.5V4.5z M200.1,229.1
			l-7.3-123.7l-7.8,136L200.1,229.1z"/>
		<path fill="#161616" d="M270.3,302.1v-89h47.9v84.4c0,6.8,3.2,12.8,10,12.8s9.6-5.9,9.6-12.8v-65.3c0-26-67.5-64.4-67.5-108.6
			V49.3c0-31,26.9-49.3,58-49.3c31.1,0,57.5,18.3,57.5,49.3v89h-47.9V53.8c0-6.8-2.7-12.8-9.6-12.8c-6.9,0-10,5.9-10,12.8v65.3
			c0,29.2,67.5,72.6,67.5,108.6v74.4c0,31-26.5,49.3-57.5,49.3S270.3,333.2,270.3,302.1z"/>
		<path fill="#161616" d="M406.5,346.9V4.5h47.9v342.3h-47.9V346.9z"/>
		<path fill="#161616" d="M475.9,302.1V49.3c0-31,26.9-49.3,58-49.3s57.5,18.3,57.5,49.3v107.3h-47.9V53.8c0-6.8-2.7-12.8-9.6-12.8
			s-10,5.9-10,12.8v243.7c0,6.8,3.2,12.8,10,12.8s9.6-5.9,9.6-12.8V194.9h47.9v107.3c0,31-26.5,49.3-57.5,49.3
			S475.9,333.2,475.9,302.1z"/>
	</g>
</g>
</svg>
