<?xml version="1.0" encoding="utf-8"?>
<!-- Generator: Adobe Illustrator 28.4.1, SVG Export Plug-In . SVG Version: 6.00 Build 0)  -->
<svg version="1.1" id="Layer_1" xmlns="http://www.w3.org/2000/svg" xmlns:xlink="http://www.w3.org/1999/xlink" x="0px" y="0px"
	 viewBox="0 0 512 512" style="enable-background:new 0 0 512 512;" xml:space="preserve">
<style type="text/css">
	.st0{fill:#F69220;}
</style>
<path class="st0" d="M441.43,82.92c-33.34-35.91-73.98-59.96-121.35-72.45c-26.64-7.03-53.81-9.7-81.31-7.73
	c-48.21,3.47-92.03,19.31-131.36,47.42c-3.8,2.72-3.82,2.76-6.75-0.86C80.6,24.62,54.66,9.89,23.59,4.02
	C17.5,2.87,11.29,2.44,5.08,2.16c-2.38-0.11-3,0.58-2.99,2.93c0.08,25.68,0.03,51.37,0.03,77.06c0,19.66,0,39.33,0,59
	c0,0,0.01,0,0.02,0c0,35.56,0.05,71.13-0.02,106.7c-0.05,17.52,0.64,34.99,3.77,52.26c4.48,24.62,12.13,48.23,23.53,70.57
	c14.35,28.13,33.17,52.86,56.63,73.96c32.52,29.24,70.11,48.88,112.77,58.78c23.62,5.48,47.55,7.43,71.69,6.06
	c47.97-2.73,91.84-17.83,131.07-45.62c52.56-37.24,86.38-87.38,101.53-150.02c5.96-24.67,8.03-49.76,6.12-75.03
	C504.69,179.05,482.24,126.88,441.43,82.92z M256.06,333.67c-42.87,0-77.63-34.76-77.63-77.63c0-42.87,34.76-77.63,77.63-77.63
	s77.62,34.76,77.62,77.63C333.68,298.91,298.93,333.67,256.06,333.67z"/>
</svg>
